<?xml version="1.0" encoding="utf-8"?>
<!-- Generator: Adobe Illustrator 16.0.0, SVG Export Plug-In . SVG Version: 6.00 Build 0)  -->
<!DOCTYPE svg PUBLIC "-//W3C//DTD SVG 1.1//EN" "http://www.w3.org/Graphics/SVG/1.1/DTD/svg11.dtd">
<svg version="1.1" id="Layer_1" xmlns="http://www.w3.org/2000/svg" xmlns:xlink="http://www.w3.org/1999/xlink" x="0px" y="0px"
	 width="40px" height="40px" viewBox="0 0 40 40" enable-background="new 0 0 40 40" xml:space="preserve">
<g>
	<path fill="#FFFFFF" d="M19.917,1.278C9.491,1.278,1,9.727,1,20.194C1,30.661,9.491,39.11,19.917,39.11
		c10.424,0,18.916-8.449,18.916-18.916C38.833,9.727,30.341,1.278,19.917,1.278z M12.56,29.022c-0.631,0-1.177-0.504-1.177-1.178
		c0-0.673,0.504-1.178,1.177-1.178c0.672,0,1.176,0.505,1.176,1.178C13.736,28.519,13.19,29.022,12.56,29.022z M12.56,22.38
		c-0.631,0-1.177-0.505-1.177-1.177s0.504-1.176,1.177-1.176c0.672,0,1.176,0.504,1.176,1.176S13.19,22.38,12.56,22.38z
		 M12.56,15.697c-0.631,0-1.177-0.505-1.177-1.178c0-0.672,0.504-1.177,1.177-1.177c0.672,0,1.176,0.504,1.176,1.177
		C13.736,15.192,13.19,15.697,12.56,15.697z M28.45,28.266H15.502v-0.841H28.45V28.266z M28.45,21.623H15.502v-0.84H28.45V21.623z
		 M28.45,14.94H15.502v-0.841H28.45V14.94z"/>
</g>
</svg>
