<?xml version="1.0" encoding="utf-8"?>
<!-- Generator: Adobe Illustrator 16.0.0, SVG Export Plug-In . SVG Version: 6.00 Build 0)  -->
<!DOCTYPE svg PUBLIC "-//W3C//DTD SVG 1.1//EN" "http://www.w3.org/Graphics/SVG/1.1/DTD/svg11.dtd">
<svg version="1.1" id="Livello_1" xmlns="http://www.w3.org/2000/svg" xmlns:xlink="http://www.w3.org/1999/xlink" x="0px" y="0px"
	 width="70px" height="69.75px" viewBox="16 0 70 69.75" enable-background="new 16 0 70 69.75" xml:space="preserve">
<g>
	<path fill="#FFFFFF" d="M51.297,1.111C32.926,1.111,17.963,16,17.963,34.444s14.963,33.333,33.334,33.333
		c18.369,0,33.333-14.889,33.333-33.333S69.666,1.111,51.297,1.111z M38.333,50c-1.111,0-2.074-0.889-2.074-2.074
		c0-1.185,0.889-2.074,2.074-2.074c1.185,0,2.074,0.889,2.074,2.074C40.407,49.111,39.444,50,38.333,50z M38.333,38.296
		c-1.111,0-2.074-0.889-2.074-2.074s0.889-2.074,2.074-2.074c1.185,0,2.074,0.889,2.074,2.074S39.444,38.296,38.333,38.296z
		 M38.333,26.519c-1.111,0-2.074-0.889-2.074-2.074c0-1.185,0.889-2.074,2.074-2.074c1.185,0,2.074,0.889,2.074,2.074
		C40.407,25.63,39.444,26.519,38.333,26.519z M66.334,48.667H43.519v-1.481h22.815V48.667z M66.334,36.963H43.519v-1.481h22.815
		V36.963z M66.334,25.185H43.519v-1.481h22.815V25.185z"/>
</g>
</svg>
